<?xml version="1.0" encoding="UTF-8"?>
<!-- Generator: visioncortex VTracer 0.6.3 -->
<svg version="1.1" xmlns="http://www.w3.org/2000/svg" width="1280" height="464">
<path d="M0 0 C8.7 2.99 15.9 5.63 21.12 13.58 C24.29 20.35 24.56 26.94 24.52 34.3 C24.52 35.4 24.52 36.5 24.52 37.63 C24.53 39.94 24.52 42.25 24.51 44.56 C24.49 48.07 24.51 51.59 24.53 55.1 C24.53 57.36 24.52 59.61 24.52 61.86 C24.52 62.9 24.53 63.95 24.53 65.02 C24.43 75.97 21.57 83.56 14.12 91.58 C11.15 94.43 8.14 97.19 5.07 99.92 C1.78 102.89 -1.31 106.01 -4.36 109.22 C-5.88 110.58 -5.88 110.58 -7.88 110.58 C-7.88 111.24 -7.88 111.9 -7.88 112.58 C-9.49 114.17 -9.49 114.17 -11.63 115.96 C-13.95 117.92 -16.14 119.84 -18.26 122.02 C-19.88 123.58 -19.88 123.58 -21.88 123.58 C-22.24 124.44 -22.24 124.44 -22.6 125.32 C-24.16 128.07 -25.99 129.65 -28.38 131.71 C-33.79 136.44 -38.84 141.46 -43.88 146.58 C-45.22 147.92 -46.55 149.25 -47.88 150.58 C-46.75 150.58 -45.62 150.57 -44.46 150.56 C-33.78 150.5 -23.1 150.46 -12.42 150.43 C-6.92 150.41 -1.43 150.39 4.06 150.36 C9.36 150.32 14.66 150.31 19.97 150.3 C21.99 150.29 24 150.28 26.02 150.26 C28.86 150.24 31.7 150.24 34.54 150.24 C35.36 150.23 36.19 150.22 37.03 150.21 C43.8 150.24 50.25 151.55 56.29 154.72 C58.11 155.83 58.11 155.83 60.08 154.94 C60.73 154.55 61.38 154.17 62.05 153.77 C67.88 150.37 73.5 150.43 80.08 150.42 C80.97 150.42 81.87 150.41 82.79 150.41 C85.74 150.39 88.68 150.38 91.63 150.38 C93.69 150.37 95.75 150.37 97.8 150.36 C102.11 150.35 106.42 150.35 110.73 150.34 C116.24 150.34 121.75 150.31 127.26 150.28 C131.51 150.27 135.76 150.26 140.01 150.26 C142.04 150.26 144.07 150.25 146.1 150.23 C148.94 150.22 151.79 150.22 154.64 150.23 C155.47 150.22 156.3 150.21 157.15 150.2 C164.66 150.25 171.99 152.04 178.12 156.58 C178.12 157.24 178.12 157.9 178.12 158.58 C178.78 158.58 179.44 158.58 180.12 158.58 C185.11 164.82 186.8 171.61 186.12 179.58 C184.54 187.17 181.49 192.54 176.74 198.58 C175.47 200.25 174.21 201.91 172.94 203.58 C172.3 204.41 171.66 205.25 171 206.1 C168.11 209.9 165.33 213.77 162.55 217.64 C161.49 219.13 160.42 220.61 159.35 222.09 C158.82 222.83 158.29 223.56 157.75 224.32 C156.07 226.65 154.38 228.97 152.7 231.29 C146.65 239.61 140.72 247.95 135.12 256.58 C137.95 261.79 141.13 266.45 144.74 271.14 C150.35 278.52 155.77 286.01 161.12 293.58 C162.19 295.08 162.19 295.08 163.29 296.61 C163.94 297.51 164.58 298.4 165.24 299.33 C165.8 300.11 166.36 300.89 166.94 301.69 C168.12 303.58 168.12 303.58 168.12 305.58 C168.78 305.58 169.44 305.58 170.12 305.58 C171.63 307.48 171.63 307.48 173.24 309.96 C173.78 310.77 174.32 311.58 174.88 312.42 C176.12 314.58 176.12 314.58 176.12 316.58 C176.78 316.58 177.44 316.58 178.12 316.58 C182.79 322.3 186.12 328.09 186.12 335.58 C187.11 335.91 188.1 336.24 189.12 336.58 C188.79 337.9 188.46 339.22 188.12 340.58 C187.46 340.58 186.8 340.58 186.12 340.58 C186.03 341.59 185.95 342.6 185.87 343.64 C184.87 350.32 181.32 355.12 176.2 359.3 C173.04 361.25 169.74 362.15 166.16 363.04 C164.14 363.39 164.14 363.39 163.12 364.58 C160.39 364.69 157.69 364.74 154.96 364.74 C153.68 364.75 153.68 364.75 152.37 364.76 C149.52 364.77 146.68 364.78 143.83 364.79 C141.86 364.79 139.88 364.8 137.91 364.8 C133.76 364.81 129.61 364.82 125.46 364.82 C120.15 364.83 114.84 364.85 109.53 364.88 C105.45 364.9 101.37 364.9 97.28 364.91 C95.33 364.91 93.37 364.92 91.41 364.93 C88.67 364.95 85.92 364.94 83.18 364.94 C82.38 364.95 81.58 364.96 80.75 364.97 C73.95 364.92 68.13 363.25 62.49 359.27 C59.27 357.24 59.27 357.24 56.05 358.14 C54.11 359.09 52.18 360.05 50.24 361.02 C43.47 364.4 38.11 366.03 30.61 365.97 C29.8 365.98 28.99 365.98 28.16 365.99 C25.51 366 22.86 365.99 20.21 365.98 C18.35 365.98 16.5 365.99 14.64 365.99 C10.76 365.99 6.89 365.99 3.01 365.97 C-1.95 365.96 -6.91 365.97 -11.87 365.98 C-15.69 365.99 -19.52 365.99 -23.35 365.98 C-25.17 365.98 -27 365.98 -28.83 365.99 C-31.39 366 -33.95 365.99 -36.5 365.97 C-37.25 365.98 -38 365.98 -38.77 365.99 C-42.46 365.94 -45.35 365.53 -48.66 363.98 C-51.63 362.35 -51.63 362.35 -53.95 362.93 C-54.56 363.24 -55.16 363.55 -55.78 363.87 C-62.72 366.6 -70.14 366.05 -77.49 366.05 C-79.11 366.06 -80.72 366.07 -82.34 366.07 C-85.71 366.09 -89.09 366.09 -92.46 366.08 C-96.76 366.08 -101.05 366.11 -105.34 366.15 C-108.67 366.17 -112 366.18 -115.34 366.17 C-116.92 366.17 -118.5 366.18 -120.08 366.2 C-132.24 366.33 -144.34 365.01 -153.52 356.12 C-156.97 352.22 -159.27 348.81 -159.88 343.58 C-162.12 345.57 -162.12 345.57 -163.26 348.89 C-166.04 355.44 -169.58 358.26 -175.86 361.37 C-185.81 365.36 -194.77 366.03 -205.36 365.98 C-206.95 365.98 -208.53 365.99 -210.11 365.99 C-213.41 365.99 -216.71 365.99 -220.01 365.97 C-224.23 365.96 -228.45 365.97 -232.66 365.98 C-235.93 365.99 -239.19 365.99 -242.45 365.98 C-244.01 365.98 -245.56 365.98 -247.11 365.99 C-249.29 366 -251.46 365.99 -253.64 365.97 C-254.87 365.97 -256.1 365.97 -257.37 365.96 C-261.49 365.52 -264.16 364.35 -267.88 362.58 C-271.98 361.36 -273.49 361.42 -277.52 363.05 C-282.01 364.8 -285.99 365.01 -290.77 364.99 C-292.05 365 -292.05 365 -293.35 365.01 C-296.13 365.03 -298.92 365.02 -301.71 365.02 C-303.67 365.02 -305.62 365.03 -307.58 365.03 C-311.67 365.04 -315.76 365.04 -319.85 365.03 C-325.07 365.02 -330.28 365.04 -335.5 365.07 C-339.54 365.08 -343.57 365.08 -347.61 365.08 C-349.53 365.08 -351.45 365.08 -353.38 365.1 C-367.04 365.17 -379.16 365.03 -389.55 354.97 C-389.99 354.51 -390.43 354.05 -390.88 353.58 C-391.31 354.03 -391.74 354.48 -392.18 354.94 C-402.78 365.19 -415.11 366.32 -429.13 366.18 C-430.82 366.18 -432.52 366.19 -434.21 366.19 C-438.78 366.2 -443.34 366.18 -447.9 366.15 C-452.7 366.13 -457.49 366.13 -462.28 366.13 C-470.32 366.13 -478.36 366.11 -486.39 366.07 C-495.68 366.03 -504.96 366.01 -514.24 366.01 C-524.15 366 -534.05 365.98 -543.96 365.96 C-546.81 365.95 -549.65 365.95 -552.5 365.95 C-556.97 365.94 -561.45 365.92 -565.92 365.9 C-567.56 365.89 -569.2 365.89 -570.84 365.89 C-573.08 365.89 -575.32 365.87 -577.56 365.86 C-579.44 365.85 -579.44 365.85 -581.36 365.84 C-585.1 365.57 -588.31 364.72 -591.88 363.58 C-592.73 363.39 -593.57 363.21 -594.44 363.01 C-602.19 361.16 -607.92 357.14 -612.3 350.41 C-615.14 344.64 -615.21 340.28 -615.88 333.58 C-622.81 333.58 -629.74 333.58 -636.88 333.58 C-637.15 335.25 -637.42 336.92 -637.7 338.64 C-639.17 346.58 -641.69 353.2 -647.88 358.58 C-650.78 360.23 -653.76 361.43 -656.88 362.58 C-657.6 362.92 -658.32 363.26 -659.05 363.61 C-662.53 364.8 -665.76 364.93 -669.39 364.99 C-670.15 365.01 -670.91 365.02 -671.69 365.04 C-674.24 365.1 -676.79 365.15 -679.35 365.19 C-681.2 365.23 -683.05 365.27 -684.9 365.3 C-709.06 365.76 -733.23 365.81 -757.4 365.82 C-763.51 365.83 -769.62 365.85 -775.72 365.87 C-781.7 365.9 -787.68 365.9 -793.65 365.91 C-796.16 365.91 -798.67 365.92 -801.18 365.93 C-804.65 365.95 -808.13 365.94 -811.6 365.94 C-812.62 365.95 -813.63 365.96 -814.68 365.97 C-820.99 365.93 -826.02 364.85 -831.88 362.58 C-833.61 362.14 -835.34 361.73 -837.08 361.37 C-838.42 361.09 -838.42 361.09 -839.78 360.8 C-840.7 360.6 -841.62 360.41 -842.57 360.21 C-861.82 355.93 -878.09 348.42 -893.88 336.58 C-894.9 335.84 -895.91 335.11 -896.96 334.35 C-926.38 312.68 -943.04 281.79 -951.7 246.71 C-952.02 245.41 -952.02 245.41 -952.36 244.08 C-953.7 238.44 -954.09 233.37 -953.88 227.58 C-954.54 227.58 -955.2 227.58 -955.88 227.58 C-957.58 224.18 -957.07 220.4 -957.07 216.64 C-957.09 215.41 -957.09 215.41 -957.11 214.15 C-957.11 213.35 -957.11 212.56 -957.11 211.74 C-957.12 210.65 -957.12 210.65 -957.13 209.54 C-956.88 207.58 -956.88 207.58 -954.88 204.58 C-954.35 202.03 -953.9 199.52 -953.51 196.96 C-948.83 168.87 -940.1 144.67 -922.2 122.24 C-920.45 120.04 -918.8 117.78 -917.13 115.52 C-914.41 112.05 -911.42 109.17 -908.02 106.37 C-906.03 104.7 -904.1 102.98 -902.17 101.25 C-898.08 97.67 -893.79 94.57 -889.26 91.58 C-888.08 90.81 -888.08 90.81 -886.88 90.01 C-872.1 80.41 -856.66 74.8 -839.57 70.83 C-838.66 70.62 -837.76 70.41 -836.82 70.19 C-808.11 63.81 -770.32 67.73 -744.88 83.58 C-736 90.18 -733.29 96.37 -731.47 107.21 C-730.49 113.93 -730.44 120.64 -730.44 127.41 C-730.43 128.87 -730.42 130.32 -730.4 131.77 C-730.37 135.55 -730.35 139.32 -730.33 143.1 C-730.3 149.15 -730.26 155.21 -730.21 161.27 C-730.19 163.35 -730.19 165.44 -730.18 167.53 C-730.13 175.1 -729.57 182.2 -727.88 189.58 C-725.6 188.73 -725.6 188.73 -725.02 186.02 C-724.73 184.89 -724.44 183.75 -724.13 182.58 C-722.62 177.03 -720.9 171.62 -718.95 166.21 C-716.47 159.35 -714.25 152.45 -712.16 145.46 C-711.28 142.65 -710.24 139.96 -709.11 137.25 C-707.19 132.55 -705.6 127.77 -704.04 122.94 C-703.79 122.17 -703.54 121.39 -703.28 120.59 C-702.24 117.35 -701.19 114.11 -700.17 110.87 C-699.41 108.47 -698.63 106.08 -697.86 103.69 C-697.63 102.97 -697.41 102.24 -697.18 101.49 C-694.69 93.94 -689.93 88.35 -682.88 84.58 C-676.45 82.71 -670.02 82.29 -663.35 82.32 C-662.46 82.32 -661.57 82.32 -660.64 82.31 C-657.72 82.3 -654.8 82.31 -651.88 82.32 C-649.83 82.32 -647.78 82.31 -645.73 82.31 C-641.45 82.31 -637.17 82.31 -632.89 82.32 C-627.42 82.33 -621.95 82.33 -616.48 82.31 C-612.25 82.31 -608.03 82.31 -603.8 82.31 C-601.78 82.32 -599.77 82.31 -597.75 82.31 C-594.93 82.3 -592.11 82.31 -589.28 82.32 C-588.46 82.32 -587.64 82.32 -586.79 82.31 C-579.86 82.36 -572.25 82.81 -566.63 87.27 C-565.73 87.96 -565.73 87.96 -564.8 88.66 C-559.64 93.83 -556.99 99.13 -554.91 106.01 C-554.66 106.8 -554.41 107.58 -554.15 108.39 C-553.36 110.89 -552.59 113.39 -551.82 115.89 C-550.79 119.18 -549.76 122.47 -548.72 125.76 C-548.47 126.55 -548.22 127.34 -547.97 128.16 C-546.48 132.85 -544.81 137.39 -542.92 141.92 C-540.65 147.75 -538.86 153.76 -536.97 159.72 C-532.24 174.56 -527.29 189.27 -521.86 203.85 C-520.98 206.31 -520.14 208.78 -519.32 211.25 C-518.92 212.47 -518.92 212.47 -518.5 213.71 C-518.3 214.33 -518.09 214.95 -517.88 215.58 C-517.88 214.74 -517.88 214.74 -517.88 213.87 C-517.82 200.13 -517.74 186.38 -517.65 172.63 C-517.6 165.98 -517.56 159.33 -517.54 152.69 C-517.51 146.27 -517.47 139.85 -517.42 133.43 C-517.4 130.98 -517.39 128.54 -517.39 126.09 C-517.38 122.66 -517.35 119.23 -517.32 115.79 C-517.32 114.79 -517.32 113.78 -517.32 112.75 C-517.2 103.64 -515.58 96.13 -508.88 89.58 C-499.93 82.53 -490.1 82.28 -479.11 82.28 C-477.86 82.27 -476.61 82.26 -475.32 82.25 C-471.9 82.23 -468.49 82.22 -465.07 82.21 C-462.93 82.21 -460.78 82.2 -458.64 82.2 C-451.11 82.17 -443.59 82.16 -436.07 82.16 C-429.12 82.15 -422.17 82.12 -415.23 82.08 C-409.21 82.05 -403.2 82.03 -397.19 82.03 C-393.62 82.03 -390.05 82.02 -386.49 81.99 C-352.21 81.73 -325.08 87.81 -299.38 111.71 C-294.17 117.04 -290.1 123.46 -285.88 129.58 C-285.6 128.52 -285.32 127.45 -285.04 126.36 C-279.17 104.79 -269.24 88.62 -250.07 76.39 C-244.24 73.08 -238.29 70.55 -231.88 68.58 C-231.14 68.35 -230.39 68.12 -229.62 67.88 C-207.53 61.38 -182.66 61.39 -160.15 65.79 C-153.98 66.89 -149.58 65.75 -143.72 63.45 C-137.57 61.56 -131.55 64.07 -125.88 66.58 C-123.92 67.89 -123.92 67.89 -121.95 69.46 C-121.18 70.06 -120.41 70.67 -119.62 71.29 C-117.49 73.07 -115.42 74.88 -113.36 76.75 C-112.75 77.3 -112.13 77.84 -111.5 78.41 C-110.27 79.51 -109.05 80.63 -107.84 81.76 C-104.42 84.91 -104.42 84.91 -99.96 85.43 C-99.28 85.15 -98.59 84.87 -97.88 84.58 C-97.55 83.59 -97.22 82.6 -96.88 81.58 C-95.42 80.14 -95.42 80.14 -93.51 78.58 C-89.44 75.14 -85.7 71.44 -81.96 67.64 C-78.68 64.33 -75.28 61.23 -71.73 58.22 C-69.12 55.91 -66.72 53.4 -64.33 50.87 C-62.88 49.58 -62.88 49.58 -60.88 49.58 C-60.88 48.92 -60.88 48.26 -60.88 47.58 C-59.55 46.28 -59.55 46.28 -57.63 44.71 C-53.12 40.9 -49.01 36.75 -44.92 32.49 C-43.61 31.15 -42.25 29.86 -40.88 28.58 C-40.22 28.58 -39.56 28.58 -38.88 28.58 C-38.88 27.92 -38.88 27.26 -38.88 26.58 C-37.48 25.21 -37.48 25.21 -35.51 23.58 C-32.12 20.72 -29.02 17.71 -25.95 14.52 C-19.32 7.84 -12.79 3.55 -3.88 0.58 C-1.88 -0.42 -1.88 -0.42 0 0 Z " fill="#FBFCFE" transform="translate(1023.8828125,49.41796875)"/>
<path d="M0 0 C1.1 -0.01 2.2 -0.02 3.34 -0.03 C4.55 -0.02 5.77 -0.02 7.02 -0.02 C8.93 -0.03 8.93 -0.03 10.88 -0.04 C14.39 -0.06 17.9 -0.07 21.4 -0.07 C23.6 -0.07 25.79 -0.07 27.99 -0.08 C35.66 -0.1 43.34 -0.1 51.01 -0.1 C58.14 -0.1 65.26 -0.12 72.39 -0.15 C78.52 -0.18 84.65 -0.19 90.79 -0.19 C94.44 -0.19 98.1 -0.2 101.75 -0.22 C105.85 -0.24 109.94 -0.23 114.04 -0.22 C115.23 -0.23 116.42 -0.24 117.64 -0.25 C135.23 -0.12 153.2 6.83 165.8 19.27 C180.45 35.68 187.97 56.28 186.8 78.27 C185.12 98.7 175.44 114.86 160.37 128.52 C155.65 132.4 150.26 135.54 144.8 138.27 C146.18 142 147.89 145.18 150.04 148.52 C150.69 149.53 151.34 150.54 152.01 151.58 C152.7 152.65 153.4 153.72 154.12 154.83 C154.85 155.96 155.57 157.09 156.3 158.22 C161.13 165.71 165.99 173.19 170.86 180.66 C179.95 194.62 188.94 208.66 197.8 222.77 C198.22 223.43 198.64 224.08 199.06 224.76 C201.8 229.15 201.8 229.15 201.8 230.27 C190.68 230.38 179.55 230.47 168.42 230.53 C163.26 230.55 158.09 230.59 152.92 230.64 C147.94 230.7 142.95 230.73 137.97 230.74 C136.06 230.75 134.16 230.77 132.26 230.8 C129.6 230.83 126.93 230.84 124.27 230.84 C123.48 230.85 122.69 230.87 121.88 230.89 C117.84 230.85 116.05 230.47 112.87 227.87 C111.03 225.55 109.5 223.38 108.11 220.78 C107.42 219.49 107.42 219.49 106.71 218.18 C106.22 217.26 105.74 216.34 105.24 215.39 C104.72 214.42 104.2 213.46 103.67 212.46 C99.56 204.76 95.51 197.03 91.52 189.26 C86.13 178.83 80.44 168.59 74.8 158.27 C74.47 182.03 74.14 205.79 73.8 230.27 C54.17 230.31 54.17 230.31 45.82 230.32 C40.12 230.32 34.41 230.33 28.71 230.34 C24.11 230.35 19.51 230.36 14.92 230.36 C13.16 230.36 11.4 230.37 9.65 230.37 C7.19 230.38 4.74 230.38 2.28 230.38 C1.19 230.39 1.19 230.39 0.07 230.39 C-4.97 230.38 -4.97 230.38 -7.2 229.27 C-7.24 200.38 -7.28 171.5 -7.3 142.61 C-7.3 139.21 -7.3 135.8 -7.31 132.39 C-7.31 131.71 -7.31 131.04 -7.31 130.34 C-7.32 119.34 -7.33 108.35 -7.35 97.35 C-7.37 86.08 -7.38 74.8 -7.38 63.53 C-7.39 57.19 -7.39 50.85 -7.41 44.52 C-7.42 38.56 -7.42 32.6 -7.42 26.65 C-7.42 24.45 -7.43 22.26 -7.43 20.07 C-7.44 17.09 -7.44 14.11 -7.44 11.13 C-7.44 10.25 -7.45 9.37 -7.45 8.47 C-7.42 1.84 -6.71 0.02 0 0 Z " fill="#EA1F26" transform="translate(538.1954956054688,156.73257446289063)"/>
<path d="M0 0 C11.68 -0.12 23.37 -0.2 35.05 -0.26 C40.47 -0.29 45.9 -0.32 51.32 -0.38 C56.55 -0.43 61.79 -0.46 67.02 -0.47 C69.02 -0.48 71.02 -0.5 73.02 -0.53 C75.81 -0.56 78.6 -0.57 81.4 -0.57 C82.23 -0.59 83.06 -0.6 83.92 -0.62 C86.22 -0.6 86.22 -0.6 90 0 C91.93 2.25 91.93 2.25 93 5 C93.3 5.75 93.6 6.49 93.91 7.26 C94.17 8.03 94.42 8.8 94.68 9.6 C94.97 10.49 95.27 11.38 95.57 12.3 C95.89 13.26 96.2 14.21 96.52 15.2 C96.85 16.21 97.19 17.23 97.53 18.27 C98.25 20.45 98.97 22.63 99.69 24.82 C101.61 30.68 103.55 36.54 105.49 42.4 C106.08 44.17 106.08 44.17 106.67 45.97 C109.87 55.63 113.13 65.26 116.44 74.88 C124.14 97.32 131.72 119.82 139.3 142.31 C140.7 146.47 142.1 150.63 143.51 154.79 C143.78 155.61 144.06 156.42 144.34 157.27 C147.88 167.75 151.43 178.23 155.01 188.69 C155.67 190.61 156.32 192.54 156.98 194.46 C158.95 200.24 160.93 206.02 162.92 211.8 C163.61 213.81 164.29 215.81 164.98 217.82 C165.29 218.72 165.6 219.62 165.92 220.55 C166.2 221.36 166.47 222.18 166.76 223.02 C167 223.72 167.24 224.42 167.49 225.15 C168 227 168 227 168 230 C157.1 230.05 146.2 230.08 135.3 230.1 C130.24 230.11 125.18 230.13 120.11 230.15 C115.23 230.17 110.35 230.18 105.47 230.19 C103.6 230.19 101.74 230.2 99.87 230.21 C97.27 230.23 94.66 230.23 92.05 230.23 C90.89 230.24 90.89 230.24 89.7 230.25 C85.92 230.23 84.23 230.15 81 228 C80.12 225.31 80.12 225.31 79.43 221.93 C79.04 220.12 79.04 220.12 78.65 218.28 C78.27 216.38 78.27 216.38 77.88 214.44 C77.35 211.94 76.83 209.43 76.3 206.93 C76.08 205.82 75.85 204.71 75.62 203.56 C75.26 201.08 75.26 201.08 74 200 C72.19 199.91 70.38 199.88 68.56 199.89 C67.4 199.89 66.24 199.89 65.04 199.89 C63.78 199.89 62.52 199.9 61.21 199.9 C59.29 199.9 59.29 199.9 57.32 199.91 C53.89 199.91 50.47 199.92 47.04 199.93 C43.55 199.94 40.06 199.95 36.57 199.95 C29.71 199.96 22.86 199.98 16 200 C15.86 200.73 15.72 201.46 15.57 202.22 C14.93 205.54 14.28 208.86 13.62 212.19 C13.4 213.34 13.18 214.49 12.95 215.67 C12.73 216.79 12.51 217.9 12.29 219.04 C12.09 220.06 11.89 221.09 11.69 222.14 C11 225 11 225 9 230 C-19.05 230 -47.1 230 -76 230 C-74.87 222.12 -74.87 222.12 -73.76 218.79 C-73.51 218.03 -73.26 217.27 -73 216.49 C-72.73 215.68 -72.45 214.88 -72.17 214.04 C-71.88 213.17 -71.59 212.3 -71.29 211.4 C-70.33 208.52 -69.36 205.64 -68.39 202.76 C-67.71 200.71 -67.03 198.67 -66.35 196.63 C-64.54 191.22 -62.73 185.81 -60.91 180.41 C-59.48 176.12 -58.04 171.84 -56.61 167.55 C-49.49 146.22 -42.31 124.92 -35.02 103.65 C-27.95 83 -21.07 62.28 -14.19 41.56 C-12 34.97 -9.81 28.37 -7.61 21.78 C-6.75 19.18 -5.89 16.58 -5.02 13.98 C-4.5 12.42 -3.98 10.85 -3.46 9.29 C-3.23 8.57 -2.99 7.86 -2.75 7.12 C-1.11 2.23 -1.11 2.23 0 0 Z " fill="#EA1F26" transform="translate(351,157)"/>
<path d="M0 0 C1.64 0.01 1.64 0.01 3.31 0.02 C18.95 0.25 38.58 3.04 51.75 12.31 C53.16 15.13 52.97 17.57 53.07 20.73 C53.09 21.4 53.11 22.07 53.13 22.76 C53.2 25.01 53.26 27.25 53.31 29.5 C53.33 30.27 53.35 31.04 53.38 31.84 C53.97 53.66 53.84 75.49 53.75 97.31 C53.42 96.65 53.09 95.99 52.75 95.31 C51.76 95.31 50.77 95.31 49.75 95.31 C48.24 93.77 48.24 93.77 46.62 91.69 C39.49 83.22 30.54 79.11 19.75 77.31 C4.92 76.23 -8.35 78.87 -20.25 88.31 C-29.28 96.39 -34.62 108.42 -36.25 120.31 C-36.52 133.4 -31.88 145.24 -23.04 154.78 C-13.14 163.77 -0.35 169.15 13.07 168.79 C28.83 166.76 43.27 158.82 55.75 149.31 C56.75 150.31 56.75 150.31 56.79 153.84 C56.75 155.43 56.71 157.02 56.66 158.61 C56.64 159.47 56.62 160.32 56.6 161.21 C56.53 164.01 56.45 166.82 56.38 169.62 C56.32 171.55 56.27 173.47 56.22 175.4 C56.08 181.04 55.92 186.67 55.75 192.31 C55.72 193.48 55.72 193.48 55.68 194.66 C55.55 199.17 55.4 203.68 55.25 208.19 C55.21 209.26 55.18 210.33 55.14 211.43 C55.07 213.42 54.99 215.4 54.89 217.39 C54.79 219.46 54.72 221.54 54.67 223.62 C54.63 224.7 54.58 225.77 54.53 226.88 C54.5 227.85 54.47 228.82 54.44 229.82 C53.75 232.31 53.75 232.31 51.36 234.07 C50.5 234.48 49.64 234.89 48.75 235.31 C47.9 235.72 47.04 236.13 46.16 236.56 C18.22 248.5 -13.95 249.03 -42.34 238.09 C-58.3 231.6 -71.83 222.21 -84.25 210.31 C-85.01 209.62 -85.77 208.92 -86.55 208.21 C-106.41 189.41 -118.63 158.99 -119.59 131.82 C-119.77 117.51 -119.09 104.13 -115.25 90.31 C-115.04 89.55 -114.83 88.78 -114.62 88 C-106.37 58.76 -86.76 31.71 -60.25 16.31 C-41.47 5.94 -21.55 -0.12 0 0 Z " fill="#EA1F26" transform="translate(213.25,141.6875)"/>
<path d="M0 0 C0.79 -0 1.57 -0.01 2.38 -0.02 C4.98 -0.03 7.58 -0.04 10.18 -0.04 C11.98 -0.05 13.79 -0.05 15.59 -0.06 C19.37 -0.07 23.16 -0.08 26.94 -0.08 C31.79 -0.08 36.64 -0.11 41.5 -0.14 C45.22 -0.16 48.95 -0.16 52.68 -0.16 C54.47 -0.17 56.26 -0.17 58.05 -0.19 C60.54 -0.2 63.04 -0.2 65.54 -0.2 C66.66 -0.21 66.66 -0.21 67.79 -0.22 C72.82 -0.18 72.82 -0.18 75.25 1.68 C75.76 2.41 75.76 2.41 76.27 3.16 C75.69 3.9 75.11 4.64 74.51 5.41 C69.12 12.31 63.97 19.34 58.94 26.51 C53.68 34.02 48.31 41.44 42.93 48.86 C41.23 51.21 39.54 53.56 37.84 55.91 C37.28 56.69 36.72 57.47 36.14 58.27 C35.03 59.81 33.93 61.34 32.83 62.88 C30.48 66.14 28.13 69.37 25.64 72.52 C24.9 73.48 24.16 74.43 23.4 75.41 C22.76 76.2 22.12 76.99 21.47 77.8 C19.78 81.13 20.12 82.62 21.27 86.16 C22.88 88.83 24.77 91.23 26.71 93.66 C27.81 95.09 28.92 96.52 30.02 97.95 C30.57 98.66 31.12 99.37 31.69 100.1 C33.94 103.03 36.08 106.02 38.21 109.04 C39.02 110.18 39.84 111.33 40.65 112.48 C41.07 113.07 41.49 113.66 41.92 114.27 C44.46 117.83 47.02 121.37 49.58 124.91 C50.4 126.04 50.4 126.04 51.23 127.19 C54.07 131.11 56.9 135.04 59.74 138.96 C76.27 161.8 76.27 161.8 76.27 163.16 C65.37 163.23 54.47 163.28 43.57 163.32 C38.51 163.33 33.45 163.35 28.39 163.39 C23.5 163.42 18.62 163.44 13.74 163.45 C11.87 163.45 10.01 163.46 8.15 163.48 C5.54 163.5 2.93 163.5 0.32 163.5 C-0.45 163.51 -1.23 163.52 -2.02 163.53 C-7.21 163.5 -7.21 163.5 -9.62 161.9 C-10.85 159.97 -11.68 158.16 -12.45 156 C-12.75 155.16 -13.05 154.33 -13.36 153.47 C-13.82 152.12 -13.82 152.12 -14.3 150.75 C-14.63 149.83 -14.96 148.9 -15.3 147.95 C-15.99 146 -16.68 144.05 -17.36 142.1 C-18.41 139.1 -19.48 136.11 -20.54 133.12 C-21.21 131.23 -21.88 129.33 -22.55 127.44 C-22.87 126.54 -23.19 125.64 -23.52 124.71 C-23.81 123.88 -24.1 123.05 -24.4 122.2 C-24.79 121.1 -24.79 121.1 -25.18 119.98 C-25.73 118.16 -25.73 118.16 -25.73 116.16 C-26.39 116.16 -27.05 116.16 -27.73 116.16 C-27.84 116.71 -27.95 117.26 -28.06 117.82 C-29.22 123.34 -30.77 128.55 -32.7 133.84 C-32.98 134.63 -33.26 135.41 -33.55 136.21 C-34.14 137.85 -34.73 139.48 -35.32 141.11 C-36.23 143.61 -37.13 146.12 -38.03 148.63 C-38.61 150.22 -39.18 151.81 -39.76 153.41 C-40.16 154.53 -40.16 154.53 -40.57 155.68 C-42.5 160.93 -42.5 160.93 -44.73 163.16 C-47.38 163.35 -49.92 163.41 -52.57 163.39 C-53.38 163.39 -54.19 163.39 -55.03 163.39 C-57.71 163.39 -60.4 163.37 -63.08 163.36 C-64.94 163.35 -66.8 163.35 -68.65 163.35 C-73.55 163.34 -78.45 163.32 -83.34 163.3 C-88.34 163.28 -93.33 163.27 -98.32 163.26 C-108.12 163.24 -117.93 163.2 -127.73 163.16 C-127.73 159.04 -127.63 158.53 -125.34 155.47 C-124.82 154.76 -124.3 154.05 -123.77 153.33 C-123.2 152.57 -122.63 151.81 -122.04 151.04 C-120.84 149.41 -119.64 147.78 -118.44 146.15 C-117.82 145.32 -117.2 144.49 -116.56 143.64 C-113.75 139.84 -110.99 136 -108.23 132.16 C-107.15 130.67 -106.07 129.17 -104.99 127.68 C-104.45 126.93 -103.92 126.19 -103.37 125.43 C-101.7 123.13 -100.04 120.82 -98.37 118.52 C-91.79 109.42 -85.24 100.3 -78.73 91.16 C-78.26 90.58 -77.79 89.99 -77.3 89.39 C-74.44 85.86 -74.44 85.86 -73.72 81.51 C-74.86 78.86 -76.16 76.83 -77.92 74.54 C-78.64 73.58 -79.36 72.62 -80.1 71.63 C-80.52 71.08 -80.93 70.54 -81.35 69.98 C-84.08 66.38 -86.74 62.73 -89.42 59.1 C-90.02 58.28 -90.62 57.47 -91.24 56.63 C-100.17 44.51 -108.98 32.29 -117.6 19.95 C-120.77 15.45 -124.05 11.11 -127.62 6.92 C-128.73 5.16 -128.73 5.16 -128.73 1.16 C-100.35 1.16 -71.97 1.16 -42.73 1.16 C-40.31 6.6 -38.08 11.71 -36.15 17.28 C-35.93 17.9 -35.72 18.53 -35.49 19.17 C-35.05 20.47 -34.6 21.77 -34.15 23.07 C-33.47 25.06 -32.78 27.04 -32.09 29.03 C-31.65 30.3 -31.21 31.57 -30.78 32.84 C-30.38 33.98 -29.99 35.12 -29.58 36.3 C-28.73 39.16 -28.73 39.16 -28.73 42.16 C-27.74 42.16 -26.75 42.16 -25.73 42.16 C-25.15 40.46 -25.15 40.46 -24.57 38.72 C-23.14 34.51 -21.71 30.3 -20.28 26.09 C-19.67 24.27 -19.05 22.45 -18.43 20.62 C-17.55 18 -16.66 15.38 -15.77 12.77 C-15.49 11.95 -15.22 11.14 -14.94 10.29 C-14.68 9.53 -14.42 8.77 -14.15 7.99 C-13.92 7.32 -13.7 6.65 -13.46 5.96 C-12.73 4.16 -12.73 4.16 -10.73 1.16 C-7.1 -0.05 -3.77 0.01 0 0 Z " fill="#024C98" transform="translate(1107.728515625,223.8388671875)"/>
<path d="M0 0 C1 0 1 0 2.02 0 C10.13 0.03 18.13 0.35 26.19 1.25 C26.19 1.91 26.19 2.57 26.19 3.25 C26.85 3.25 27.51 3.25 28.19 3.25 C28.19 22.06 28.19 40.87 28.19 60.25 C25.4 61.18 23.33 61.44 20.44 61.62 C15.7 62.09 12.31 62.81 8.19 65.25 C5.3 69.82 4.85 73.28 5 78.62 C5.03 79.87 5.05 81.12 5.08 82.4 C5.13 83.81 5.13 83.81 5.19 85.25 C10.16 86.88 15.4 86.22 20.56 86.09 C24.19 86.25 24.19 86.25 29.19 88.25 C29.19 106.07 29.19 123.89 29.19 142.25 C21.27 142.58 13.35 142.91 5.19 143.25 C5.19 146.11 5.2 148.96 5.2 151.9 C5.22 161.36 5.23 170.82 5.24 180.28 C5.24 186.01 5.25 191.75 5.26 197.48 C5.27 203.02 5.28 208.55 5.28 214.09 C5.28 216.2 5.29 218.31 5.29 220.41 C5.3 223.38 5.3 226.34 5.3 229.3 C5.31 230.59 5.31 230.59 5.31 231.91 C5.3 237.81 4.78 243.31 4.19 249.25 C-20.23 249.25 -44.65 249.25 -69.81 249.25 C-70.96 246.96 -70.95 245.65 -70.97 243.1 C-70.99 241.8 -70.99 241.8 -71 240.46 C-71.01 239.03 -71.01 239.03 -71.02 237.57 C-71.03 236.56 -71.04 235.56 -71.05 234.52 C-71.08 231.19 -71.1 227.86 -71.13 224.52 C-71.15 222.22 -71.17 219.91 -71.19 217.6 C-71.25 211.52 -71.3 205.45 -71.34 199.37 C-71.39 193.17 -71.45 186.97 -71.51 180.77 C-71.61 168.59 -71.71 156.42 -71.81 144.25 C-73.62 144.18 -73.62 144.18 -75.46 144.1 C-77.04 144.03 -78.61 143.95 -80.19 143.88 C-80.98 143.84 -81.78 143.81 -82.59 143.78 C-88.59 143.48 -88.59 143.48 -90.81 141.25 C-91.06 139.05 -91.06 139.05 -91.06 136.28 C-91.06 135.25 -91.06 134.21 -91.06 133.15 C-91.06 132.03 -91.05 130.9 -91.04 129.75 C-91.04 128.6 -91.04 127.46 -91.04 126.28 C-91.04 123.85 -91.03 121.42 -91.02 118.99 C-91 115.27 -91 111.54 -91 107.81 C-90.99 105.46 -90.99 103.1 -90.98 100.75 C-90.98 99.63 -90.98 98.51 -90.98 97.35 C-90.97 96.32 -90.96 95.28 -90.96 94.22 C-90.95 93.31 -90.95 92.39 -90.95 91.45 C-90.81 89.25 -90.81 89.25 -89.81 87.25 C-83.87 86.92 -77.93 86.59 -71.81 86.25 C-71.79 83.68 -71.76 81.11 -71.73 78.46 C-71.7 75.92 -71.65 73.38 -71.6 70.84 C-71.58 69.1 -71.56 67.36 -71.54 65.62 C-71.38 47.43 -69 30.06 -55.96 16.28 C-40.71 1.89 -19.94 -0.02 0 0 Z " fill="#024C98" transform="translate(832.8125,137.75)"/>
<path d="M0 0 C9.63 -0.02 19.26 -0.04 28.89 -0.05 C33.37 -0.06 37.84 -0.06 42.31 -0.08 C46.62 -0.09 50.93 -0.09 55.24 -0.09 C56.89 -0.1 58.54 -0.1 60.19 -0.11 C62.49 -0.11 64.79 -0.11 67.09 -0.11 C69.06 -0.12 69.06 -0.12 71.07 -0.12 C74 0 74 0 75 1 C75.1 3.08 75.12 5.15 75.12 7.23 C75.12 7.89 75.12 8.55 75.12 9.23 C75.12 11.45 75.12 13.67 75.11 15.89 C75.11 17.48 75.11 19.07 75.11 20.65 C75.11 24.97 75.11 29.29 75.1 33.61 C75.1 38.12 75.09 42.63 75.09 47.14 C75.09 55.69 75.08 64.23 75.07 72.78 C75.06 82.51 75.06 92.23 75.05 101.96 C75.04 121.97 75.02 141.99 75 162 C65.37 162.02 55.74 162.04 46.11 162.05 C41.63 162.06 37.16 162.06 32.69 162.08 C28.38 162.09 24.07 162.09 19.76 162.09 C18.11 162.1 16.46 162.1 14.81 162.11 C12.51 162.11 10.21 162.11 7.91 162.11 C6.59 162.12 5.28 162.12 3.93 162.12 C1 162 1 162 0 161 C-0.1 158.92 -0.12 156.85 -0.12 154.77 C-0.12 154.11 -0.12 153.45 -0.12 152.77 C-0.12 150.55 -0.12 148.33 -0.11 146.11 C-0.11 144.52 -0.11 142.93 -0.11 141.35 C-0.11 137.03 -0.11 132.71 -0.1 128.39 C-0.1 123.88 -0.09 119.37 -0.09 114.86 C-0.09 106.31 -0.08 97.77 -0.07 89.22 C-0.06 79.49 -0.06 69.77 -0.05 60.04 C-0.04 40.03 -0.02 20.01 0 0 Z " fill="#024C98" transform="translate(888,225)"/>
<path d="M0 0 C1.77 40.57 1.77 40.57 -4.35 48.91 C-7.55 52.16 -11.14 54.63 -15.1 56.87 C-17.65 58.39 -19.51 60.31 -21.5 62.5 C-23.87 64.91 -26.31 67.17 -28.88 69.38 C-32.07 72.12 -35.04 75.01 -38 78 C-40.88 80.91 -43.76 83.72 -46.88 86.38 C-50.43 89.41 -53.71 92.67 -57 96 C-60.87 99.92 -64.81 103.65 -69.01 107.23 C-72.34 110.2 -75.43 113.42 -78.56 116.59 C-81.24 119.24 -84.04 121.68 -86.91 124.13 C-91.12 127.89 -95.04 131.97 -99 136 C-103.44 133.99 -106.66 131.73 -110.19 128.38 C-113.88 124.92 -117.62 121.61 -121.56 118.44 C-126.88 114.14 -131.99 109.65 -137 105 C-137.53 104.55 -138.06 104.1 -138.61 103.63 C-140.34 101.6 -140.37 100.63 -140.34 97.99 C-140.34 97.19 -140.34 96.39 -140.34 95.56 C-140.32 94.7 -140.31 93.84 -140.29 92.96 C-140.29 92.07 -140.28 91.19 -140.28 90.28 C-140.26 87.46 -140.23 84.63 -140.19 81.81 C-140.17 79.9 -140.16 77.99 -140.15 76.07 C-140.11 71.38 -140.06 66.69 -140 62 C-135.2 62 -134.44 62.9 -130.88 65.94 C-129.9 66.76 -128.92 67.59 -127.92 68.44 C-125.31 70.72 -122.74 73.04 -120.19 75.38 C-116.1 79.08 -111.91 82.65 -107.62 86.12 C-106.73 86.87 -106.73 86.87 -105.82 87.63 C-102.8 90.25 -102.8 90.25 -99.03 90.83 C-96.56 89.82 -95.24 88.57 -93.39 86.65 C-92.38 85.62 -92.38 85.62 -91.35 84.57 C-90.66 83.84 -89.96 83.12 -89.25 82.38 C-84.63 77.61 -79.97 73.03 -74.93 68.7 C-71.81 65.95 -68.91 62.97 -66 60 C-61.77 55.72 -57.52 51.59 -52.92 47.7 C-49.6 44.76 -46.55 41.56 -43.43 38.4 C-41.37 36.36 -39.27 34.44 -37.06 32.56 C-33.71 29.7 -30.59 26.64 -27.5 23.5 C-23.84 19.79 -20.09 16.27 -16.11 12.9 C-14.4 11.36 -12.78 9.78 -11.17 8.13 C-10.67 7.62 -10.18 7.12 -9.67 6.6 C-8.7 5.59 -7.73 4.58 -6.77 3.55 C-3.33 0 -3.33 0 0 0 Z " fill="#EA1F26" transform="translate(1023,77)"/>
<path d="M0 0 C0.14 0.87 0.28 1.74 0.42 2.64 C2.05 12.35 4.03 21.96 6.14 31.57 C6.28 32.22 6.42 32.87 6.57 33.54 C7.91 39.64 9.26 45.75 10.61 51.85 C11.21 54.56 11.81 57.28 12.41 60 C12.97 62.54 13.53 65.07 14.09 67.61 C14.35 68.75 14.6 69.9 14.85 71.08 C15.08 72.08 15.3 73.08 15.53 74.12 C16 77 16 77 16 83 C4.45 83 -7.1 83 -19 83 C-17.88 71.75 -17.88 71.75 -16.83 66.87 C-16.6 65.78 -16.37 64.69 -16.13 63.56 C-15.89 62.41 -15.64 61.26 -15.38 60.08 C-15.12 58.87 -14.87 57.65 -14.6 56.4 C-13.78 52.54 -12.95 48.67 -12.12 44.81 C-11.31 40.98 -10.49 37.14 -9.67 33.3 C-9.15 30.84 -8.63 28.39 -8.1 25.93 C-7.03 20.93 -5.97 15.92 -5.02 10.89 C-4.88 10.18 -4.75 9.46 -4.61 8.72 C-4.27 6.94 -3.95 5.15 -3.64 3.37 C-3.43 2.59 -3.22 1.8 -3 1 C-1 0 -1 0 0 0 Z " fill="#FCFDFF" transform="translate(398,219)"/>
<path d="M0 0 C3.17 -0.12 6.33 -0.19 9.5 -0.25 C10.39 -0.28 11.27 -0.32 12.19 -0.35 C19.27 -0.46 24.73 0.94 29.99 5.86 C34.81 12.74 38.24 19.4 37 28 C35.28 34.73 32.2 39.72 26.5 43.81 C19.22 47.73 9.04 46.86 1 46 C0 45 0 45 -0.12 43.17 C-0.12 42.37 -0.12 41.58 -0.11 40.76 C-0.11 39.85 -0.11 38.95 -0.11 38.03 C-0.11 37.05 -0.1 36.07 -0.1 35.06 C-0.1 34.06 -0.09 33.06 -0.09 32.04 C-0.09 28.84 -0.08 25.64 -0.06 22.44 C-0.06 20.27 -0.05 18.11 -0.05 15.95 C-0.04 10.63 -0.02 5.32 0 0 Z " fill="#FCFDFF" transform="translate(612,216)"/>
<path d="M0 0 C4.95 0.33 9.9 0.66 15 1 C15 1.33 15 1.66 15 2 C9.06 2.5 9.06 2.5 3 3 C2.97 14.35 2.95 25.71 2.94 37.06 C2.94 37.92 2.94 38.78 2.93 39.66 C2.91 68.24 3.11 96.8 3.5 125.38 C3.51 126.25 3.52 127.13 3.54 128.04 C3.68 138.69 3.84 149.35 4 160 C26.77 160 49.54 160 73 160 C73.33 112.81 73.66 65.62 74 17 C74.33 17 74.66 17 75 17 C75 64.85 75 112.7 75 162 C56.72 162.03 56.72 162.03 38.06 162.06 C34.21 162.07 30.35 162.08 26.38 162.09 C21.69 162.09 21.69 162.09 19.5 162.1 C17.96 162.1 16.42 162.1 14.88 162.11 C12.56 162.11 10.23 162.11 7.91 162.11 C6.59 162.12 5.28 162.12 3.93 162.12 C1 162 1 162 0 161 C-0.1 158.92 -0.12 156.85 -0.12 154.77 C-0.12 154.11 -0.12 153.45 -0.12 152.77 C-0.12 150.55 -0.12 148.33 -0.11 146.11 C-0.11 144.52 -0.11 142.93 -0.11 141.35 C-0.11 137.03 -0.11 132.71 -0.1 128.39 C-0.1 123.88 -0.09 119.37 -0.09 114.86 C-0.09 106.31 -0.08 97.77 -0.07 89.22 C-0.06 79.49 -0.06 69.77 -0.05 60.04 C-0.04 40.03 -0.02 20.01 0 0 Z " fill="#003A8E" transform="translate(888,225)"/>
<path d="M0 0 C1 0 1 0 2.02 0 C10.13 0.03 18.13 0.35 26.19 1.25 C26.19 1.91 26.19 2.57 26.19 3.25 C26.85 3.25 27.51 3.25 28.19 3.25 C28.19 22.06 28.19 40.87 28.19 60.25 C25.43 61.17 23.25 61.5 20.38 61.75 C16.61 62.1 12.91 62.56 9.19 63.25 C11.09 60.74 12.19 60.25 15.32 59.52 C16.5 59.37 17.67 59.22 18.88 59.06 C20.05 58.9 21.23 58.75 22.45 58.58 C23.35 58.47 24.26 58.36 25.19 58.25 C26.45 52.53 26.22 46.98 26.07 41.16 C26.04 40.11 26.02 39.05 25.99 37.96 C25.92 34.6 25.83 31.24 25.75 27.88 C25.7 25.59 25.64 23.3 25.59 21.02 C25.46 15.43 25.33 9.84 25.19 4.25 C23.99 4.27 22.79 4.29 21.56 4.31 C18 4.32 14.7 3.87 11.19 3.25 C9.12 3.16 7.05 3.12 4.98 3.12 C3.27 3.12 3.27 3.12 1.52 3.11 C0.33 3.12 -0.85 3.12 -2.06 3.12 C-3.26 3.12 -4.46 3.12 -5.69 3.11 C-6.83 3.11 -7.97 3.12 -9.14 3.12 C-10.7 3.12 -10.7 3.12 -12.29 3.12 C-14.81 3.08 -14.81 3.08 -16.81 4.25 C-18.56 4.52 -20.31 4.77 -22.06 5 C-31.76 6.57 -40.79 9.55 -48.81 15.25 C-49.47 14.92 -50.13 14.59 -50.81 14.25 C-49.69 13.41 -48.57 12.58 -47.44 11.75 C-46.81 11.29 -46.18 10.82 -45.54 10.34 C-43.81 9.25 -43.81 9.25 -41.81 9.25 C-41.81 8.59 -41.81 7.93 -41.81 7.25 C-28.22 0.81 -14.79 -0.02 0 0 Z " fill="#003A8E" transform="translate(832.8125,137.75)"/>
<path d="M0 0 C3.18 2.58 3.87 5.24 4.94 9.12 C6.28 13.74 7.8 17.95 9.87 22.27 C10.86 24.66 11.65 27.01 12.41 29.48 C12.66 30.3 12.91 31.11 13.17 31.94 C13.68 33.59 14.16 35.23 14.63 36.88 C14.86 37.64 15.1 38.4 15.34 39.18 C15.54 39.87 15.74 40.56 15.95 41.26 C17.49 43.81 19.2 44.09 22 45 C24.78 45.29 24.78 45.29 27.75 45.24 C28.88 45.25 30.01 45.25 31.18 45.25 C32.39 45.25 33.61 45.24 34.87 45.23 C36.13 45.23 37.4 45.23 38.71 45.23 C41.39 45.23 44.08 45.22 46.76 45.21 C50.16 45.19 53.55 45.18 56.95 45.19 C60.23 45.19 63.52 45.18 66.8 45.17 C68 45.17 69.2 45.17 70.43 45.16 C78.99 45.12 87.47 44.65 96 44 C95.67 42.35 95.34 40.7 95 39 C97.69 41.51 99.45 43.67 101 47 C90.1 47.07 79.2 47.12 68.3 47.16 C63.24 47.17 58.18 47.19 53.11 47.23 C48.23 47.26 43.35 47.28 38.47 47.28 C36.6 47.29 34.74 47.3 32.87 47.32 C30.27 47.34 27.66 47.34 25.05 47.34 C23.89 47.36 23.89 47.36 22.7 47.37 C17.52 47.34 17.52 47.34 15.11 45.74 C13.88 43.81 13.04 41.99 12.27 39.84 C11.96 39 11.66 38.17 11.35 37.31 C11.03 36.41 10.72 35.51 10.39 34.59 C10.06 33.67 9.73 32.74 9.39 31.79 C8.69 29.84 8 27.89 7.31 25.94 C6.25 22.94 5.18 19.95 4.1 16.96 C3.42 15.07 2.75 13.17 2.08 11.28 C1.75 10.38 1.43 9.48 1.1 8.55 C0.81 7.72 0.52 6.89 0.22 6.03 C-0.04 5.3 -0.3 4.57 -0.57 3.81 C-1 2 -1 2 0 0 Z " fill="#003A8E" transform="translate(1083,340)"/>
<path d="M0 0 C2.31 0.33 4.62 0.66 7 1 C6.73 1.84 6.45 2.67 6.17 3.53 C5.92 8.56 8.22 10.74 11.31 14.5 C12.43 15.92 13.55 17.35 14.67 18.77 C15.23 19.48 15.8 20.19 16.38 20.92 C18.72 23.92 20.93 27.01 23.12 30.12 C23.94 31.28 24.76 32.43 25.58 33.59 C25.98 34.15 26.38 34.72 26.8 35.3 C28.79 38.12 30.8 40.94 32.81 43.75 C33.21 44.31 33.62 44.88 34.03 45.46 C37.59 50.44 41.17 55.41 44.75 60.38 C45.28 61.11 45.81 61.85 46.36 62.61 C46.87 63.32 47.39 64.04 47.92 64.77 C48.68 65.82 48.68 65.82 49.44 66.89 C50.52 68.35 51.63 69.79 52.76 71.21 C53.32 71.92 53.88 72.62 54.45 73.35 C54.97 73.98 55.48 74.61 56 75.26 C56.33 75.83 56.66 76.41 57 77 C56.51 78.49 56.51 78.49 56 80 C53.25 77.56 51.25 74.96 49.26 71.9 C46.14 67.17 42.82 62.61 39.44 58.06 C38.2 56.39 36.96 54.72 35.72 53.04 C35.1 52.2 34.48 51.36 33.84 50.5 C26.13 40.03 18.57 29.45 11.12 18.79 C7.96 14.29 4.68 9.95 1.11 5.76 C0 4 0 4 0 0 Z " fill="#003A8E" transform="translate(979,225)"/>
<path d="M0 0 C0.33 0 0.66 0 1 0 C1.01 1.26 1.01 2.52 1.02 3.82 C1.07 15.68 1.15 27.54 1.24 39.4 C1.28 45.5 1.32 51.6 1.35 57.7 C1.37 63.58 1.41 69.46 1.46 75.34 C1.48 77.59 1.49 79.84 1.5 82.08 C1.51 85.22 1.54 88.36 1.57 91.5 C1.57 92.44 1.56 93.38 1.56 94.34 C1.58 95.19 1.59 96.05 1.6 96.93 C1.61 97.67 1.61 98.41 1.62 99.18 C1.87 101.42 1.87 101.42 5 103 C7.87 103.31 7.87 103.31 11.17 103.26 C13.08 103.27 13.08 103.27 15.02 103.28 C16.41 103.27 17.8 103.27 19.19 103.27 C20.61 103.27 22.03 103.27 23.46 103.27 C26.44 103.27 29.42 103.27 32.41 103.26 C36.23 103.25 40.05 103.26 43.88 103.27 C46.81 103.28 49.75 103.27 52.69 103.27 C54.1 103.27 55.51 103.27 56.92 103.27 C58.89 103.28 60.86 103.27 62.83 103.26 C63.95 103.26 65.07 103.26 66.23 103.25 C69.21 103.2 69.21 103.2 72 101 C72.73 97.93 72.73 97.93 73 95 C73.33 95 73.66 95 74 95 C74 98.3 74 101.6 74 105 C49.58 105 25.16 105 0 105 C-1.12 98.25 -1.12 98.25 -1.08 94.52 C-1.07 93.26 -1.07 93.26 -1.06 91.97 C-1.05 91.07 -1.04 90.16 -1.02 89.23 C-1.01 88.26 -1 87.3 -0.99 86.3 C-0.96 83.12 -0.92 79.94 -0.88 76.76 C-0.85 74.55 -0.83 72.34 -0.81 70.12 C-0.74 64.31 -0.68 58.51 -0.61 52.7 C-0.53 46.76 -0.47 40.83 -0.4 34.9 C-0.28 23.27 -0.14 11.63 0 0 Z " fill="#003A8E" transform="translate(763,282)"/>
<path d="M0 0 C2.97 0.5 2.97 0.5 6 1 C5.51 1.4 5.03 1.8 4.53 2.22 C2.61 4.46 2.6 5.59 2.55 8.52 C2.52 9.88 2.52 9.88 2.48 11.28 C2.47 12.26 2.46 13.24 2.45 14.25 C2.43 15.26 2.41 16.27 2.39 17.31 C2.35 19.44 2.32 21.58 2.29 23.71 C2.25 26.99 2.19 30.26 2.12 33.53 C2.08 35.6 2.05 37.68 2.02 39.75 C2 40.73 1.98 41.71 1.96 42.72 C1.95 43.63 1.94 44.55 1.93 45.48 C1.92 46.29 1.91 47.09 1.9 47.91 C1.92 50.2 1.92 50.2 3 53 C7.95 53.66 12.9 54.32 18 55 C18 55.33 18 55.66 18 56 C15.21 56.05 12.42 56.09 9.62 56.12 C8.83 56.14 8.04 56.16 7.22 56.18 C5.15 56.19 3.07 56.1 1 56 C-1 54 -1 54 -1.25 51.8 C-1.25 50.89 -1.24 49.97 -1.24 49.03 C-1.25 47.48 -1.25 47.48 -1.25 45.9 C-1.25 44.78 -1.24 43.65 -1.23 42.5 C-1.23 41.35 -1.23 40.21 -1.23 39.03 C-1.23 36.6 -1.22 34.17 -1.21 31.74 C-1.19 28.02 -1.19 24.29 -1.19 20.56 C-1.18 18.21 -1.17 15.85 -1.17 13.5 C-1.17 12.38 -1.17 11.26 -1.16 10.1 C-1.16 9.07 -1.15 8.03 -1.15 6.97 C-1.14 6.06 -1.14 5.14 -1.13 4.2 C-1 2 -1 2 0 0 Z " fill="#003A8E" transform="translate(743,225)"/>
<path d="M0 0 C1 2 1 2 0.56 3.82 C0.17 4.93 0.17 4.93 -0.23 6.05 C-0.53 6.89 -0.82 7.72 -1.12 8.58 C-1.61 9.93 -1.61 9.93 -2.11 11.31 C-2.44 12.24 -2.77 13.16 -3.11 14.11 C-3.81 16.07 -4.52 18.03 -5.22 19.99 C-6.31 22.98 -7.38 25.99 -8.44 28.99 C-9.12 30.89 -9.81 32.79 -10.49 34.69 C-10.81 35.59 -11.13 36.49 -11.46 37.42 C-11.92 38.67 -11.92 38.67 -12.38 39.95 C-12.65 40.68 -12.91 41.42 -13.18 42.18 C-14 44 -14 44 -16 46 C-18.65 46.19 -21.2 46.25 -23.85 46.23 C-24.66 46.23 -25.47 46.23 -26.3 46.23 C-28.98 46.23 -31.67 46.21 -34.35 46.2 C-36.21 46.19 -38.07 46.19 -39.93 46.19 C-44.82 46.18 -49.72 46.16 -54.61 46.14 C-59.61 46.12 -64.6 46.11 -69.59 46.1 C-79.4 46.08 -89.2 46.04 -99 46 C-99 42 -99 42 -97.62 40.25 C-96 39 -96 39 -94 39 C-94.33 40.32 -94.66 41.64 -95 43 C-94.34 43 -93.68 43 -93 43 C-93 43.66 -93 44.32 -93 45 C-55.38 44.5 -55.38 44.5 -17 44 C-12.75 33.37 -8.53 22.79 -4.99 11.9 C-4.08 9.23 -3.04 6.69 -1.88 4.12 C-1.52 3.34 -1.17 2.56 -0.8 1.76 C-0.54 1.18 -0.27 0.6 0 0 Z " fill="#003A8E" transform="translate(1079,341)"/>
<path d="M0 0 C0.71 -0 1.41 -0.01 2.14 -0.01 C11.06 -0.04 11.06 -0.04 14.62 0.31 C15.62 1.3 15.62 1.3 16.62 2.31 C13.22 3.45 10.65 3.41 7.06 3.38 C5.12 3.36 5.12 3.36 3.15 3.35 C1.79 3.34 0.43 3.33 -0.94 3.31 C-3.61 3.29 -6.27 3.27 -8.94 3.25 C-10.13 3.24 -11.31 3.23 -12.53 3.21 C-15.32 3.11 -15.32 3.11 -17.38 4.31 C-19.12 4.58 -20.87 4.83 -22.62 5.06 C-32.32 6.63 -41.35 9.62 -49.38 15.31 C-50.03 14.98 -50.7 14.65 -51.38 14.31 C-50.25 13.47 -49.13 12.64 -48 11.81 C-47.37 11.35 -46.75 10.88 -46.1 10.41 C-44.38 9.31 -44.38 9.31 -42.38 9.31 C-42.38 8.65 -42.38 7.99 -42.38 7.31 C-28.63 0.8 -14.92 0.03 0 0 Z " fill="#003E90" transform="translate(833.375,137.6875)"/>
<path d="M0 0 C1.65 0.33 3.3 0.66 5 1 C5 18.82 5 36.64 5 55 C-1.27 55 -7.54 55 -14 55 C-14 54.67 -14 54.34 -14 54 C-8.72 54 -3.44 54 2 54 C2.05 47.27 2.09 40.55 2.11 33.82 C2.12 31.53 2.13 29.25 2.15 26.96 C2.18 23.67 2.19 20.38 2.2 17.09 C2.21 16.07 2.22 15.05 2.23 14 C2.23 8.93 2.03 4.75 0 0 Z " fill="#003A8E" transform="translate(857,225)"/>
<path d="M0 0 C0.33 0.99 0.66 1.98 1 3 C0.08 4.85 -0.86 6.69 -1.83 8.52 C-3.64 12.35 -4.73 16.35 -5.93 20.41 C-7.09 24.31 -8.31 28.19 -9.56 32.06 C-9.96 33.29 -10.35 34.52 -10.75 35.79 C-11.88 38.68 -12.99 40.67 -15 43 C-14.61 34.79 -12.07 27.45 -9.39 19.76 C-8.62 17.55 -7.87 15.33 -7.12 13.11 C-6.64 11.7 -6.15 10.29 -5.66 8.88 C-5.44 8.22 -5.22 7.56 -4.99 6.87 C-3.74 3.35 -3.21 2.14 0 0 Z " fill="#014192" transform="translate(1098,226)"/>
<path d="M0 0 C0.33 0 0.66 0 1 0 C0.57 3.96 -0.1 7.31 -1.5 11.03 C-4.03 19.3 -3.58 28.06 -3.69 36.62 C-3.72 38.41 -3.76 40.2 -3.79 41.98 C-3.88 46.32 -3.94 50.66 -4 55 C-4.33 55 -4.66 55 -5 55 C-5.07 49.06 -5.13 43.12 -5.16 37.18 C-5.18 35.16 -5.2 33.14 -5.23 31.13 C-5.26 28.21 -5.28 25.3 -5.29 22.38 C-5.31 21.49 -5.32 20.6 -5.34 19.69 C-5.34 13.35 -4.11 7.97 -2 2 C-1.34 2 -0.68 2 0 2 C0 1.34 0 0.68 0 0 Z " fill="#003D8F" transform="translate(768,169)"/>
<path d="M0 0 C1.32 0 2.64 0 4 0 C7.43 7.29 10.17 14.77 12.81 22.38 C13.44 24.14 13.44 24.14 14.08 25.93 C14.48 27.06 14.87 28.18 15.27 29.34 C15.63 30.35 15.98 31.37 16.35 32.42 C17 35 17 35 16 38 C15.12 35.69 14.25 33.38 13.38 31.06 C13.11 30.35 12.84 29.64 12.56 28.91 C11.11 25.07 9.72 21.22 8.41 17.33 C8.15 16.57 7.89 15.82 7.63 15.04 C7.14 13.59 6.65 12.13 6.18 10.67 C4.74 6.43 3.01 3.32 0 0 Z " fill="#003A8E" transform="translate(1061,225)"/>
<path d="M0 0 C4.38 -0.05 8.76 -0.09 13.13 -0.11 C14.62 -0.12 16.11 -0.13 17.6 -0.15 C19.74 -0.18 21.88 -0.19 24.02 -0.2 C25.31 -0.21 26.6 -0.22 27.93 -0.23 C31 0 31 0 33 2 C30.05 2.98 28.07 3.13 25 3.12 C23.7 3.13 23.7 3.13 22.38 3.13 C20 3 20 3 17 2 C15.67 1.86 14.33 1.75 12.99 1.68 C11.85 1.62 11.85 1.62 10.69 1.56 C9.51 1.5 9.51 1.5 8.31 1.44 C7.52 1.39 6.72 1.35 5.9 1.31 C3.93 1.2 1.97 1.1 0 1 C0 0.67 0 0.34 0 0 Z " fill="#014192" transform="translate(817,138)"/>
<path d="M0 0 C4.95 0.33 9.9 0.66 15 1 C15 1.33 15 1.66 15 2 C9.06 2.5 9.06 2.5 3 3 C2.88 4.46 2.75 5.93 2.62 7.44 C2.41 9.93 2.41 9.93 2 12 C1.01 12.5 1.01 12.5 0 13 C0 8.71 0 4.42 0 0 Z " fill="#003C8F" transform="translate(888,225)"/>
<path d="M0 0 C1.33 3.98 0.23 5.4 -1.44 9.19 C-1.91 10.27 -2.38 11.36 -2.87 12.48 C-3.43 13.73 -3.43 13.73 -4 15 C-4.33 15 -4.66 15 -5 15 C-4.86 13.56 -4.71 12.12 -4.56 10.69 C-4.48 9.89 -4.4 9.09 -4.32 8.26 C-4 6 -4 6 -3 3 C-2.34 3 -1.68 3 -1 3 C-0.67 2.01 -0.34 1.02 0 0 Z " fill="#003F90" transform="translate(1088,254)"/>
<path d="M0 0 C0 3.61 -0.82 4.41 -3 7.19 C-3.56 7.9 -4.11 8.62 -4.69 9.36 C-5.12 9.9 -5.55 10.44 -6 11 C-6.61 9.16 -6.61 9.16 -7 7 C-4.92 3.88 -3.13 2.09 0 0 Z " fill="#014192" transform="translate(1015,337)"/>
<path d="M0 0 C1 3 1 3 -0.25 6.12 C-2 9 -2 9 -5 10 C-4.57 5.25 -3.67 3.08 0 0 Z " fill="#003F91" transform="translate(1098,226)"/>
</svg>
